# File created by Blade
# Date/Time:  Wed Jan 21 19:08:52 2015
# Frame Rate: 120.000 fps
#------------------------------------------------------
:FULLY-SPECIFIED
:DEGREES
2365
root -5.195790 32.674143 -6.461693 47.946604 -5.784613 2.334555
RightUpLeg -43.689490 -16.830025 10.114089
RightLeg 6.172902 -0.000000 -0.000000
RightFoot -13.760955 2.588628 27.314937
RightToeBase 12.718947 -0.000000 -0.000000
LeftUpLeg -49.851452 -8.439391 0.765343
LeftLeg 7.640841 -0.000000 -0.000000
LeftFoot -9.544106 2.798590 4.117222
LeftToeBase 7.865891 -0.000000 -0.000000
Spine -43.487191 7.847537 0.033444
RightShoulder -15.189810 12.490622 -33.946195
RightArm 0.680075 -13.199863 69.463489
RightForeArm 26.043048 0.000000 2.017531
RightHand 14.919527 -0.000000 3.084873
RightHandThumb1 -24.326973 -0.000000 -32.862282
LeftShoulder -10.431552 6.954792 35.830593
LeftArm 20.762736 -2.812291 -48.022309
LeftForeArm 10.897670 -0.000000 10.940007
LeftHand -16.268550 -0.000000 -1.077221
LeftHandThumb1 -26.253704 0.000000 33.147579
Head 6.167936 1.497637 7.335886
2366
root -5.211044 32.675773 -6.450283 47.966512 -5.696749 2.370317
RightUpLeg -43.650540 -16.729760 10.010209
RightLeg 6.195280 -0.000000 -0.000000
RightFoot -13.851592 2.450600 27.358439
RightToeBase 12.681508 -0.000000 -0.000000
LeftUpLeg -49.880132 -8.407069 0.705294
LeftLeg 7.707540 -0.000000 -0.000000
LeftFoot -9.555397 2.710659 4.052056
LeftToeBase 7.852541 -0.000000 -0.000000
Spine -43.550061 7.866198 -0.001530
RightShoulder -15.140404 12.518316 -34.003664
RightArm 0.736631 -13.275199 69.603565
RightForeArm 26.106346 -0.000000 2.039168
RightHand 14.900227 -0.000000 3.123509
RightHandThumb1 -24.326973 -0.000000 -32.862282
LeftShoulder -10.461592 6.953458 35.747750
LeftArm 20.761402 -2.528291 -48.062037
LeftForeArm 10.902796 -0.000000 10.750008
LeftHand -16.261960 -0.000000 -1.147242
LeftHandThumb1 -26.253704 0.000000 33.147579
Head 6.196922 1.469626 7.299686
2367
root -5.235618 32.676697 -6.425348 47.958189 -5.590264 2.390751
RightUpLeg -43.524458 -16.717708 10.004717
RightLeg 6.113792 -0.000000 -0.000000
RightFoot -13.867788 2.378799 27.342809
RightToeBase 12.661066 -0.000000 -0.000000
LeftUpLeg -49.843321 -8.320594 0.640654
LeftLeg 7.763164 -0.000000 -0.000000
LeftFoot -9.620461 2.520699 3.991722
LeftToeBase 7.898718 -0.000000 -0.000000
Spine -43.628717 7.847892 -0.041909
RightShoulder -15.125648 12.527222 -34.009093
RightArm 0.776119 -13.975728 69.739429
RightForeArm 26.740116 -0.000000 2.152547
RightHand 15.103389 0.000000 2.688180
RightHandThumb1 -24.326973 -0.000000 -32.862282
LeftShoulder -10.488541 7.008911 35.695974
LeftArm 20.773452 -2.240722 -48.108506
LeftForeArm 10.926573 -0.000000 10.594270
LeftHand -16.313928 -0.000000 -1.201244
LeftHandThumb1 -26.253704 0.000000 33.147579
Head 6.281204 1.451861 7.353540
2368
root -5.256429 32.679784 -6.401811 47.958278 -5.498522 2.412542
RightUpLeg -43.402731 -16.675340 9.967591
RightLeg 6.023525 -0.000000 -0.000000
RightFoot -13.882891 2.267572 27.392252
RightToeBase 12.631331 -0.000000 -0.000000
LeftUpLeg -49.816266 -8.278046 0.619315
LeftLeg 7.800469 -0.000000 -0.000000
LeftFoot -9.729803 2.430665 4.029644
LeftToeBase 8.148145 -0.000000 -0.000000
Spine -43.706136 7.813574 -0.064926
RightShoulder -15.091947 12.570963 -34.041724
RightArm 0.797695 -14.187788 69.908129
RightForeArm 26.869299 -0.000000 2.265418
RightHand 15.076706 -0.000000 2.396118
RightHandThumb1 -24.326973 -0.000000 -32.862282
LeftShoulder -10.515187 7.055208 35.632462
LeftArm 20.727202 -1.995625 -48.181158
LeftForeArm 11.001191 -0.000000 10.436620
LeftHand -16.280140 0.000000 -1.428068
LeftHandThumb1 -26.253704 0.000000 33.147579
Head 6.359745 1.433315 7.365523
2369
root -5.266676 32.683514 -6.387555 47.991618 -5.392709 2.442751
RightUpLeg -43.343975 -16.644061 9.931807
RightLeg 5.952114 -0.000000 -0.000000
RightFoot -13.895291 2.148936 27.437788
RightToeBase 12.581853 -0.000000 -0.000000
LeftUpLeg -49.872506 -8.314002 0.638200
LeftLeg 7.876603 -0.000000 -0.000000
LeftFoot -9.740758 2.392813 3.921983
LeftToeBase 8.218461 -0.000000 -0.000000
Spine -43.786078 7.773641 -0.067177
RightShoulder -15.064559 12.691402 -34.097294
RightArm 0.791017 -14.240986 70.038567
RightForeArm 26.882122 -0.000000 2.325668
RightHand 15.104508 -0.000000 2.488574
RightHandThumb1 -24.326973 -0.000000 -32.862282
LeftShoulder -10.541391 7.045002 35.553193
LeftArm 20.608022 -1.808912 -48.288927
LeftForeArm 11.074089 -0.000000 10.324783
LeftHand -16.211491 -0.000000 -1.585358
LeftHandThumb1 -26.253704 0.000000 33.147579
Head 6.403901 1.427696 7.356979
2370
root -5.284443 32.686148 -6.360059 47.974728 -5.253011 2.459144
RightUpLeg -43.179557 -16.705149 9.984678
RightLeg 5.786786 -0.000000 -0.000000
RightFoot -13.853878 2.083839 27.425768
RightToeBase 12.561498 -0.000000 -0.000000
LeftUpLeg -49.846660 -8.347708 0.701203
LeftLeg 7.937364 -0.000000 -0.000000
LeftFoot -9.798357 2.262530 3.743502
LeftToeBase 8.278623 -0.000000 -0.000000
Spine -43.857372 7.681817 -0.036590
RightShoulder -15.028650 12.781187 -34.112632
RightArm 0.782828 -14.075834 70.162236
RightForeArm 26.612896 -0.000000 2.401949
RightHand 15.189903 0.000000 2.662257
RightHandThumb1 -24.326973 -0.000000 -32.862282
LeftShoulder -10.578121 7.107006 35.475565
LeftArm 20.552878 -1.529407 -48.345683
LeftForeArm 11.006668 -0.000000 10.147257
LeftHand -16.290623 -0.000000 -1.598070
LeftHandThumb1 -26.253704 0.000000 33.147579
Head 6.518599 1.438497 7.381067
2371
root -5.299624 32.687749 -6.330194 47.929921 -5.118455 2.457421
RightUpLeg -42.983378 -16.772132 10.045091
RightLeg 5.622094 -0.000000 -0.000000
RightFoot -13.796324 2.045928 27.499054
RightToeBase 12.535921 -0.000000 -0.000000
LeftUpLeg -49.789545 -8.357124 0.727878
LeftLeg 8.009715 -0.000000 -0.000000
LeftFoot -9.813795 2.232904 3.802769
LeftToeBase 8.141053 -0.000000 -0.000000
Spine -43.901146 7.594574 0.003256
RightShoulder -15.008836 12.842311 -34.121579
RightArm 0.812033 -14.072015 70.281308
RightForeArm 26.742209 -0.000000 2.505328
RightHand 15.106105 -0.000000 2.622855
RightHandThumb1 -24.326973 -0.000000 -32.862282
LeftShoulder -10.600865 7.127485 35.435258
LeftArm 20.413558 -1.418116 -48.511816
LeftForeArm 11.190192 -0.000000 10.007959
LeftHand -16.147223 0.000000 -1.845171
LeftHandThumb1 -26.253704 0.000000 33.147579
Head 6.624720 1.457466 7.441030
2372
root -5.312291 32.689478 -6.300053 47.894778 -4.936643 2.471703
RightUpLeg -42.793769 -16.905529 10.146018
RightLeg 5.432840 -0.000000 -0.000000
RightFoot -13.737457 2.016772 27.509852
RightToeBase 12.592437 -0.000000 -0.000000
LeftUpLeg -49.792419 -8.408352 0.800833
LeftLeg 8.171503 -0.000000 -0.000000
LeftFoot -9.926274 2.063711 3.584428
LeftToeBase 8.270291 -0.000000 -0.000000
Spine -43.959387 7.459325 0.068244
RightShoulder -14.988526 12.958740 -34.149836
RightArm 0.763781 -14.180275 70.410568
RightForeArm 26.828123 -0.000000 2.631814
RightHand 15.099503 0.000000 2.597119
RightHandThumb1 -24.326973 -0.000000 -32.862282
LeftShoulder -10.641615 7.173462 35.372702
LeftArm 20.335636 -1.205748 -48.629594
LeftForeArm 11.169635 -0.000000 9.808094
LeftHand -16.141041 -0.000000 -1.892787
LeftHandThumb1 -26.253704 0.000000 33.147579
Head 6.737684 1.470875 7.495126
2373
root -5.323217 32.689803 -6.268564 47.842178 -4.745048 2.465453
RightUpLeg -42.585360 -17.056153 10.276045
RightLeg 5.240294 -0.000000 -0.000000
RightFoot -13.654030 2.030931 27.561944
RightToeBase 12.589602 -0.000000 -0.000000
LeftUpLeg -49.764774 -8.497829 0.927052
LeftLeg 8.296484 -0.000000 -0.000000
LeftFoot -9.973228 2.017129 3.526847
LeftToeBase 8.139100 -0.000000 -0.000000
Spine -43.999441 7.353562 0.127585
RightShoulder -14.999473 13.012164 -34.168841
RightArm 0.733551 -14.147364 70.514153
RightForeArm 26.662969 -0.000000 2.782140
RightHand 15.094465 0.000000 2.598751
RightHandThumb1 -24.326973 -0.000000 -32.862282
LeftShoulder -10.663024 7.215415 35.310871
LeftArm 20.281455 -1.094546 -48.779931
LeftForeArm 11.167211 -0.000000 9.586958
LeftHand -15.988508 -0.000000 -2.170904
LeftHandThumb1 -26.253704 0.000000 33.147579
Head 6.827695 1.440032 7.568332
2374
root -5.331755 32.688888 -6.235931 47.793828 -4.552500 2.463897
RightUpLeg -42.392130 -17.218836 10.405430
RightLeg 5.071910 -0.000000 -0.000000
RightFoot -13.588213 2.058919 27.619897
RightToeBase 12.627358 -0.000000 -0.000000
LeftUpLeg -49.735317 -8.622241 1.084340
LeftLeg 8.401702 -0.000000 -0.000000
LeftFoot -10.060771 1.949279 3.277312
LeftToeBase 8.227993 -0.000000 -0.000000
Spine -44.045409 7.235292 0.174738
RightShoulder -15.014868 13.104198 -34.192651
RightArm 0.659823 -14.100653 70.619478
RightForeArm 26.674170 -0.000000 2.928648
RightHand 15.089992 -0.000000 2.665850
RightHandThumb1 -24.326973 -0.000000 -32.862282
LeftShoulder -10.690477 7.204998 35.288419
LeftArm 20.169666 -0.979898 -48.985087
LeftForeArm 11.211971 -0.000000 9.412872
LeftHand -15.973090 0.000000 -2.384658
LeftHandThumb1 -26.253704 0.000000 33.147579
Head 6.903515 1.359060 7.638317
